<svg width="24" height="36" viewBox="0 0 24 36" fill="none" xmlns="http://www.w3.org/2000/svg">
<g clip-path="url(#clip0_932_15643)">
<path d="M12 36C18.6274 36 24 30.6274 24 24C24 17.3726 18.6274 12 12 12C5.37258 12 0 17.3726 0 24C0 30.6274 5.37258 36 12 36Z" fill="#26A17B"/>
</g>
<path d="M14.9 16.996C17.948 16.996 19.472 18.208 19.472 20.632C19.472 22.144 18.752 23.296 17.312 24.088C15.896 24.856 13.868 25.252 11.228 25.276C11.18 26.14 11.156 26.824 11.156 27.328C11.156 28.408 11.396 29.212 11.876 29.74C12.38 30.244 13.004 30.496 13.748 30.496C14.492 30.496 15.164 30.352 15.764 30.064C16.388 29.776 16.88 29.44 17.24 29.056C17.6 28.648 17.912 28.228 18.176 27.796C18.656 27.004 18.896 26.5 18.896 26.284L19.544 26.572C19.472 26.956 19.256 27.472 18.896 28.12C18.536 28.744 18.14 29.26 17.708 29.668C17.276 30.076 16.64 30.46 15.8 30.82C14.96 31.156 14.024 31.324 12.992 31.324C11.048 31.324 9.572 30.868 8.564 29.956C7.58 29.02 7.088 27.748 7.088 26.14C7.088 23.284 7.796 21.052 9.212 19.444C10.628 17.812 12.524 16.996 14.9 16.996ZM18.572 20.632C18.572 19.84 18.332 19.192 17.852 18.688C17.396 18.16 16.7 17.896 15.764 17.896C14.852 17.896 13.952 18.448 13.064 19.552C12.2 20.656 11.624 22.288 11.336 24.448C16.16 24.424 18.572 23.152 18.572 20.632Z" fill="white"/>
<defs>
<clipPath id="clip0_932_15643">
<rect width="24" height="24" fill="white" transform="translate(0 12)"/>
</clipPath>
</defs>
</svg>
