<svg width="56" height="64" viewBox="0 0 56 64" fill="none" xmlns="http://www.w3.org/2000/svg">
<g clip-path="url(#clip0_1_8)">
<path d="M28 64C43.464 64 56 51.464 56 36C56 20.536 43.464 8 28 8C12.536 8 0 20.536 0 36C0 51.464 12.536 64 28 64Z" fill="#26A17B"/>
</g>
<path d="M32.6 30.104C38.0187 30.104 40.728 32.2587 40.728 36.568C40.728 39.256 39.448 41.304 36.888 42.712C34.3707 44.0773 30.7653 44.7813 26.072 44.824C25.9867 46.36 25.944 47.576 25.944 48.472C25.944 50.392 26.3707 51.8213 27.224 52.76C28.12 53.656 29.2293 54.104 30.552 54.104C31.8747 54.104 33.0693 53.848 34.136 53.336C35.2453 52.824 36.12 52.2267 36.76 51.544C37.4 50.8187 37.9547 50.072 38.424 49.304C39.2773 47.896 39.704 47 39.704 46.616L40.856 47.128C40.728 47.8107 40.344 48.728 39.704 49.88C39.064 50.9893 38.36 51.9067 37.592 52.632C36.824 53.3573 35.6933 54.04 34.2 54.68C32.7067 55.2773 31.0427 55.576 29.208 55.576C25.752 55.576 23.128 54.7653 21.336 53.144C19.5867 51.48 18.712 49.2187 18.712 46.36C18.712 41.2827 19.9707 37.3147 22.488 34.456C25.0053 31.5547 28.376 30.104 32.6 30.104ZM39.128 36.568C39.128 35.16 38.7013 34.008 37.848 33.112C37.0373 32.1733 35.8 31.704 34.136 31.704C32.5147 31.704 30.9147 32.6853 29.336 34.648C27.8 36.6107 26.776 39.512 26.264 43.352C34.84 43.3093 39.128 41.048 39.128 36.568Z" fill="white"/>
<defs>
<clipPath id="clip0_1_8">
<rect width="56" height="56" fill="white" transform="translate(0 8)"/>
</clipPath>
</defs>
</svg>
