<svg width="24" height="28" viewBox="0 0 24 28" fill="none" xmlns="http://www.w3.org/2000/svg">
<g clip-path="url(#clip0_932_15639)">
<path d="M12 26C18.6274 26 24 20.6274 24 14C24 7.37258 18.6274 2 12 2C5.37258 2 0 7.37258 0 14C0 20.6274 5.37258 26 12 26Z" fill="#627EEA"/>
</g>
<path d="M13.856 20.352C13.376 20.928 12.776 21.216 12.056 21.216C11.336 21.216 10.768 21.032 10.352 20.664C9.952 20.296 9.752 19.816 9.752 19.224C9.752 19.016 9.88 18.144 10.136 16.608L10.928 12.312H9.92L9.968 11.88H11C12.184 11.88 13.056 11.832 13.616 11.736L13.952 11.664L12.296 20.736C12.776 20.688 13.176 20.464 13.496 20.064L13.856 20.352ZM11.744 9.36C11.408 9.024 11.24 8.616 11.24 8.136C11.24 7.656 11.408 7.248 11.744 6.912C12.08 6.56 12.488 6.384 12.968 6.384C13.448 6.384 13.856 6.56 14.192 6.912C14.544 7.248 14.72 7.656 14.72 8.136C14.72 8.616 14.544 9.024 14.192 9.36C13.856 9.696 13.448 9.864 12.968 9.864C12.488 9.864 12.08 9.696 11.744 9.36Z" fill="white"/>
<defs>
<clipPath id="clip0_932_15639">
<rect width="24" height="24" fill="white" transform="translate(0 2)"/>
</clipPath>
</defs>
</svg>
